HIERARCHY
ROOT Hips
{
	OFFSET -14.64140 90.27770 -84.91600
	CHANNELS 6 Xposition Yposition Zposition Zrotation Xrotation Yrotation
	JOINT Spine
	{
		OFFSET 0.00000 13.20850 -1.60436
		CHANNELS 3 Zrotation Xrotation Yrotation
		JOINT Spine1
		{
			OFFSET 0.00000 8.61716 0.00000
			CHANNELS 3 Zrotation Xrotation Yrotation
			JOINT Spine2
			{
				OFFSET 0.00000 8.61717 0.00000
				CHANNELS 3 Zrotation Xrotation Yrotation
				JOINT Spine3
				{
					OFFSET 0.00000 8.61717 0.00000
					CHANNELS 3 Zrotation Xrotation Yrotation
					JOINT Neck
					{
						OFFSET 0.00000 11.07920 1.10792
						CHANNELS 3 Zrotation Xrotation Yrotation
						JOINT Neck1
						{
							OFFSET 0.00000 7.08032 0.00000
							CHANNELS 3 Zrotation Xrotation Yrotation
							JOINT Head
							{
								OFFSET 0.00000 7.08031 0.00000
								CHANNELS 3 Zrotation Xrotation Yrotation
								End site
								{
									OFFSET 0.00000 0.00000 0.00000
								}
							}
						}
					}
					JOINT RightShoulder
					{
						OFFSET -0.01000 7.91373 5.19711
						CHANNELS 3 Zrotation Xrotation Yrotation
						JOINT RightArm
						{
							OFFSET -18.41580 0.00000 0.00000
							CHANNELS 3 Zrotation Xrotation Yrotation
							JOINT RightForeArm
							{
								OFFSET -29.11090 0.00000 0.00000
								CHANNELS 3 Zrotation Xrotation Yrotation
								JOINT RightHand
								{
									OFFSET -24.65040 0.00000 0.00000
									CHANNELS 3 Zrotation Xrotation Yrotation
									JOINT RightHandThumb1
									{
										OFFSET -5.35114 -0.85590 3.97906
										CHANNELS 3 Zrotation Xrotation Yrotation
										JOINT RightHandThumb2
										{
											OFFSET -4.52789 0.00000 0.00000
											CHANNELS 3 Zrotation Xrotation Yrotation
											JOINT RightHandThumb3
											{
												OFFSET -2.46976 0.00000 0.00000
												CHANNELS 3 Zrotation Xrotation Yrotation
												End site
												{
													OFFSET 0.00000 0.00000 0.00000
												}
											}
										}
									}
									JOINT RightHandIndex1
									{
										OFFSET -14.26970 0.00000 2.88139
										CHANNELS 3 Zrotation Xrotation Yrotation
										JOINT RightHandIndex2
										{
											OFFSET -5.48836 0.00000 0.00000
											CHANNELS 3 Zrotation Xrotation Yrotation
											JOINT RightHandIndex3
											{
												OFFSET -3.01859 0.00000 0.00000
												CHANNELS 3 Zrotation Xrotation Yrotation
												End site
												{
													OFFSET 0.00000 0.00000 0.00000
												}
											}
										}
									}
									JOINT RightHandMiddle1
									{
										OFFSET -14.26970 0.00000 -0.09147
										CHANNELS 3 Zrotation Xrotation Yrotation
										JOINT RightHandMiddle2
										{
											OFFSET -6.17441 0.00000 0.00000
											CHANNELS 3 Zrotation Xrotation Yrotation
											JOINT RightHandMiddle3
											{
												OFFSET -3.56743 0.00000 0.00000
												CHANNELS 3 Zrotation Xrotation Yrotation
												End site
												{
													OFFSET 0.00000 0.00000 0.00000
												}
											}
										}
									}
									JOINT RightHandRing1
									{
										OFFSET -12.69180 0.00000 -3.06433
										CHANNELS 3 Zrotation Xrotation Yrotation
										JOINT RightHandRing2
										{
											OFFSET -5.62556 0.00000 0.00000
											CHANNELS 3 Zrotation Xrotation Yrotation
											JOINT RightHandRing3
											{
												OFFSET -3.56744 0.00000 0.00000
												CHANNELS 3 Zrotation Xrotation Yrotation
												End site
												{
													OFFSET 0.00000 0.00000 0.00000
												}
											}
										}
									}
									JOINT RightHandPinky1
									{
										OFFSET -11.11390 0.00000 -6.03719
										CHANNELS 3 Zrotation Xrotation Yrotation
										JOINT RightHandPinky2
										{
											OFFSET -4.52789 0.00000 0.00000
											CHANNELS 3 Zrotation Xrotation Yrotation
											JOINT RightHandPinky3
											{
												OFFSET -2.46976 0.00000 0.00000
												CHANNELS 3 Zrotation Xrotation Yrotation
												End site
												{
													OFFSET 0.00000 0.00000 0.00000
												}
											}
										}
									}
								}
							}
						}
					}
					JOINT LeftShoulder
					{
						OFFSET 0.01000 7.91373 5.19711
						CHANNELS 3 Zrotation Xrotation Yrotation
						JOINT LeftArm
						{
							OFFSET 18.41580 0.00000 0.00000
							CHANNELS 3 Zrotation Xrotation Yrotation
							JOINT LeftForeArm
							{
								OFFSET 29.11090 0.00000 0.00000
								CHANNELS 3 Zrotation Xrotation Yrotation
								JOINT LeftHand
								{
									OFFSET 24.65040 0.00000 0.00000
									CHANNELS 3 Zrotation Xrotation Yrotation
									JOINT LeftHandThumb1
									{
										OFFSET 5.35114 -0.85590 3.97906
										CHANNELS 3 Zrotation Xrotation Yrotation
										JOINT LeftHandThumb2
										{
											OFFSET 4.52789 0.00000 0.00000
											CHANNELS 3 Zrotation Xrotation Yrotation
											JOINT LeftHandThumb3
											{
												OFFSET 2.46977 0.00000 0.00000
												CHANNELS 3 Zrotation Xrotation Yrotation
												End site
												{
													OFFSET 0.00000 0.00000 0.00000
												}
											}
										}
									}
									JOINT LeftHandIndex1
									{
										OFFSET 14.26970 0.00000 2.88139
										CHANNELS 3 Zrotation Xrotation Yrotation
										JOINT LeftHandIndex2
										{
											OFFSET 5.48836 0.00000 0.00000
											CHANNELS 3 Zrotation Xrotation Yrotation
											JOINT LeftHandIndex3
											{
												OFFSET 3.01859 0.00000 0.00000
												CHANNELS 3 Zrotation Xrotation Yrotation
												End site
												{
													OFFSET 0.00000 0.00000 0.00000
												}
											}
										}
									}
									JOINT LeftHandMiddle1
									{
										OFFSET 14.26970 0.00000 -0.09147
										CHANNELS 3 Zrotation Xrotation Yrotation
										JOINT LeftHandMiddle2
										{
											OFFSET 6.17440 0.00000 0.00000
											CHANNELS 3 Zrotation Xrotation Yrotation
											JOINT LeftHandMiddle3
											{
												OFFSET 3.56744 0.00000 0.00000
												CHANNELS 3 Zrotation Xrotation Yrotation
												End site
												{
													OFFSET 0.00000 0.00000 0.00000
												}
											}
										}
									}
									JOINT LeftHandRing1
									{
										OFFSET 12.69180 0.00000 -3.06433
										CHANNELS 3 Zrotation Xrotation Yrotation
										JOINT LeftHandRing2
										{
											OFFSET 5.62556 0.00000 0.00000
											CHANNELS 3 Zrotation Xrotation Yrotation
											JOINT LeftHandRing3
											{
												OFFSET 3.56744 0.00000 0.00000
												CHANNELS 3 Zrotation Xrotation Yrotation
												End site
												{
													OFFSET 0.00000 0.00000 0.00000
												}
											}
										}
									}
									JOINT LeftHandPinky1
									{
										OFFSET 11.11390 0.00000 -6.03719
										CHANNELS 3 Zrotation Xrotation Yrotation
										JOINT LeftHandPinky2
										{
											OFFSET 4.52789 0.00000 0.00000
											CHANNELS 3 Zrotation Xrotation Yrotation
											JOINT LeftHandPinky3
											{
												OFFSET 2.46976 0.00000 0.00000
												CHANNELS 3 Zrotation Xrotation Yrotation
												End site
												{
													OFFSET 0.00000 0.00000 0.00000
												}
											}
										}
									}
								}
							}
						}
					}
					JOINT pCube4
					{
						OFFSET 0.00000 10.91090 1.10792
						CHANNELS 3 Zrotation Xrotation Yrotation
						End site
						{
							OFFSET 0.00000 0.00000 0.00000
						}
					}
				}
			}
		}
	}
	JOINT RightUpLeg
	{
		OFFSET -9.98441 0.00000 0.00000
		CHANNELS 3 Zrotation Xrotation Yrotation
		JOINT RightLeg
		{
			OFFSET 0.00000 -42.11790 0.00000
			CHANNELS 3 Zrotation Xrotation Yrotation
			JOINT RightFoot
			{
				OFFSET 0.00000 -45.00020 -0.00001
				CHANNELS 3 Zrotation Xrotation Yrotation
				JOINT RightForeFoot
				{
					OFFSET 0.00000 -3.74820 0.00000
					CHANNELS 3 Zrotation Xrotation Yrotation
					JOINT RightToeBase
					{
						OFFSET 0.00000 0.06325 14.43120
						CHANNELS 3 Zrotation Xrotation Yrotation
						End site
						{
							OFFSET 0.00000 0.00000 0.00000
						}
					}
				}
			}
		}
	}
	JOINT LeftUpLeg
	{
		OFFSET 9.98441 0.00000 0.00000
		CHANNELS 3 Zrotation Xrotation Yrotation
		JOINT LeftLeg
		{
			OFFSET 0.00000 -42.11800 0.00000
			CHANNELS 3 Zrotation Xrotation Yrotation
			JOINT LeftFoot
			{
				OFFSET 0.00000 -45.00070 0.00000
				CHANNELS 3 Zrotation Xrotation Yrotation
				JOINT LeftForeFoot
				{
					OFFSET 0.00000 -3.74824 0.00000
					CHANNELS 3 Zrotation Xrotation Yrotation
					JOINT LeftToeBase
					{
						OFFSET 0.00000 0.06325 14.43110
						CHANNELS 3 Zrotation Xrotation Yrotation
						End site
						{
							OFFSET 0.00000 0.00000 0.00000
						}
					}
				}
			}
		}
	}
}
MOTION
Frames: 4
Frame Time: 0.050000
-0.04384482942504097 0.006123004770195602 -0.025022996454595395 -0.016430098925775873 0.019655231761157906 -0.011922271166066797 5.138946659898482 6.625156067815367 -1.8756207936301341 -1.0233603149212513 4.188569284169933 0.47110707407815555 -0.6918100091402569 -0.5667539010839825 1.0323747333523028 -0.041306378796099205 0.10077593371646648 -0.30847441620833305 -0.3943986011191779 14.065704353935027 -1.4125631506982141 -0.38829153222173624 -1.805234455212045 -4.037342890632553 0.2978113302796655 -19.625299484295954 -0.3863617981737183 -12.627038829550473 3.96045458745463 -17.450393240681066 77.35861995614272 -6.4993267551873535 15.247370803276109 10.192260514074457 -5.071587816878232 70.68969178836286 2.129760354115294 0.17998754804441341 0.06317338457519797 4.491849352074468 -0.11711371833457888 -1.6039739729755393 -0.02498810491303735 -0.021411711604184317 -56.26668389527221 0.003192788447981469 -0.04461582803396302 -56.19693071332785 -38.7860832887478 0.021296511672781616 -0.024200633205751824 -0.00086337641682416 0.03148323148519929 -0.030038025947390433 -0.004533055732330013 -0.03375561362633153 0.010647501825463977 -36.68993513045016 0.03709112882692982 -0.03763793826830862 0.03524338842819576 0.025384991647829935 0.018184265186823194 -0.006968861967634192 0.037325582853221954 -0.02268949128311404 -19.738035244458498 0.02491482494230845 0.01923245644796272 0.04724713377181769 0.0013195132853343354 0.017805629518444797 -0.0050803290507211215 0.022083617953738414 -0.0037910876787366756 24.058889273367818 -0.04613963356307744 0.014285114695329094 28.826287716542762 0.03492877283287901 -0.035437565669763284 28.861956766419 0.014264984913918534 -0.041094021168180755 12.090525839025739 2.5739420904124257 14.930703064116447 -71.93420373247996 7.616713939581123 -20.772441978014058 -3.9382210599044267 -7.332650461185408 -61.96525427945595 -4.488586522473569 2.4504359293336924 -3.6485497788003136 -0.46561777805582477 0.05530637500974287 -8.135501551165817 -0.03524664667643794 0.04382838924405576 44.55582391217708 -0.00715061971664411 -0.0486311985624794 44.56034411249981 12.418158918754738 -0.027684527419011812 -0.017660067317704895 0.004564663870319128 -0.009268155395972751 -0.04542886253652862 0.03910485813041083 0.03206913637498698 -0.0366049642721627 11.129661372261603 -0.04962134125949314 0.0004968350720984935 0.03570628462804181 0.02521257297843541 -0.03507261408255972 -0.024880073846057296 0.02172818219607321 0.02445968923413155 4.769880958256734 -0.002254136736402453 0.01512615070951063 0.01820638566933474 -0.0227003489617968 -0.039952019802114505 0.001211220353501702 0.011982456263422312 -0.03699768269789172 -5.608622250173202 0.008224033837530063 0.045162728371074115 -6.6964681527100645 -0.015627990857635093 0.041755761236858556 -6.714901598981741 -0.030682855369009412 0.008755024131554998 0.007943097038650941 0.0037030048259060803 0.0003227785803813793 8.088008234039044 3.4588260144104046 -19.21725443271434 0.039662264883125097 10.397031163072253 0.03130108138680449 -5.655798470939654 -15.67827959905354 3.235694676150801 -0.02820323837620812 -0.03910194728359307 -0.012017816764894499 -0.019933628593135407 4.678977895595302 -0.004279727563925976 12.461476480859096 -8.219382514241106 6.8633545587220635 -0.022078857525809285 46.397328871310265 0.0014628442531995941 -4.336118428367954 -14.778899579299152 -3.787112236473023 -0.000338039901643473 -0.001644844082186303 0.03649356208723462 -0.023401568031111465 -10.783038426200699 0.021826734274110332 
-0.03667667314761969 0.0002545359712010394 -0.008957160532342634 -0.009984549533991414 0.0012754403452214843 0.005711471950955173 5.130235533312174 6.689941087663382 -1.8920221343277628 -1.0099889258963384 4.195335872564264 0.46112973861013823 -0.6690621199599436 -0.5153586267780419 1.0235656939701219 0.051133794000802806 0.1141049561052182 -0.26172113467202074 -0.4503600497531728 14.058889077952118 -1.523862285598675 -0.41965051059547465 -1.801515691078021 -4.321889187125651 0.3111479655552785 -19.616774143400928 -0.41206573187906587 -12.399683012708758 3.9039121980863025 -17.52458129451084 76.06284928511528 -5.3841868173051965 14.79600535948269 11.661456655499885 -4.939240476282744 71.74392794811367 2.7775645088693572 0.08422630121525486 -0.02944570238610061 4.50954163781033 -0.16823705953791696 -1.6177682432398104 0.027151755306236803 0.003964723759618463 -56.19518880744838 0.016544538830800877 0.03351895565281712 -56.27281004557683 -38.76620946604864 0.023195605886399195 0.029995678866323858 0.01098701915623134 0.02158525821161957 0.008886305637646565 -0.009767886799420141 -0.005363449102037174 0.0396232554541576 -36.69470196909467 0.004135682469901769 0.028377914028030523 0.02282148517087404 -0.02539487674332816 0.017950488566573098 -0.028634408706171708 -0.002715744800450973 -0.048068388007849495 -19.784527188126752 0.011972752711937248 0.002944684350206625 0.007699058163101574 -0.013863570505807894 0.048087772379010234 -0.007498690421724592 0.009989314234635976 -0.0171068794882425 24.030603181832923 -0.03527523349783059 0.028075159435896804 28.831759126397635 0.02476163131684572 -0.03322458001252434 28.865443498714548 0.00815674092402639 0.014774101997505984 11.899294175831301 2.531113116789759 14.971605657854768 -71.08338190915975 7.838474249286797 -20.209234299332042 -5.080958335453774 -7.066813300701871 -63.05925216605173 -5.185474955815314 2.2649606782564073 -3.474768892269516 -0.5097918877907995 0.0832362971940373 -8.084332798901974 -0.004074360056095183 -0.0370115139693652 44.583791221423354 0.002030505132203858 0.03562949823936516 44.5704060604635 12.42270256708576 0.031375027605326455 -0.03230487351001366 0.01605686518124933 -0.02927889723226079 -0.02772263528331685 0.026934376184312003 -0.022218362783180005 -0.03134523438342405 11.124902168276753 -0.012278284700034314 0.0189814605753239 0.0008221812016534129 0.028773421706543133 0.021869666182385634 -0.0016577742746133929 -0.048446349608395944 -0.001123351603421473 4.7504268736215485 -0.021614382494428812 -0.045826689082342734 -0.028919263008042744 -0.03712879615422386 -0.00047787247482119685 0.008328345965082909 0.0076560145115085595 -0.026284249949925658 -5.594683209678666 -0.025942949279779137 -0.016665490153090302 -6.700820635065073 0.011304356498876122 -0.023728113768065443 -6.725126123899757 0.004012957143472322 -0.018480153125173995 0.026393613257852118 0.03219076380074043 -0.003234663218566463 8.05507001213255 3.504441237010391 -19.192414156162332 0.03158169494597268 10.393874117407945 0.01299514903705907 -5.593898223717269 -15.66417483984547 3.216162442886265 0.009843455359350365 -0.038791406709546186 0.045220353441971124 0.042203148078972824 4.718822859512146 -0.02019323709633523 12.476370269161508 -8.237047588160143 6.895649318663792 -0.03532070254671042 46.35549506353664 0.02384263318280934 -4.31818295987778 -14.775539465958438 -3.861580660800348 0.003993963393754394 0.02261994179704096 -0.02398332288802314 -0.03790598744630134 -10.727017769516646 -0.03267883454885959 
0.04560082309277663 0.03402309225373744 -0.04637455060201383 -0.014440838244313033 0.04385764956412843 0.0038251104011304523 5.084117618006463 6.702231927397202 -1.818467989802197 -1.022308296712723 4.2961884322077 0.43481838678100837 -0.6816070951451564 -0.4410123711011499 1.0883511592017925 0.18295156165662113 0.14737939986441898 -0.2750521160724994 -0.37486940553008885 14.036882270959891 -1.7606489729836767 -0.47148488506924446 -1.904984499144749 -5.137835610367388 0.3506508773852508 -19.723530471856943 -0.4259630856651086 -12.283814844034254 3.7924499801765186 -17.65185692603968 74.88512618911147 -4.098942865351555 14.752369702615686 12.430438434910883 -5.306367885366555 72.20589631557442 3.303021195250097 0.046196199951205885 -0.21324127797355538 4.571051754488193 -0.09290244245143206 -1.569908405214291 -0.023765387816571143 0.03723856913260846 -56.19448794002486 0.018176865333642465 0.02231688128478562 -56.25778655594283 -38.7525257493633 0.025855448655204814 -0.0075288415111004845 0.038709570082511066 -0.02343761486377719 -0.04696570403918963 0.02501514696885173 0.010380453760857288 -0.037236177552100166 -36.73198275030427 -0.006163615012348853 -0.0085199781127578 -0.016789312139138337 -0.04560353179148653 0.002067441975332618 0.008813943154309192 -0.01906649278183476 0.045290797372112834 -19.781631043599027 0.004523837616145881 0.018993048683471295 0.012307106217580707 -0.02543384859235457 -0.015265699135117999 0.0022150450680869654 -0.04810830983073283 0.040842808651798145 24.02451537910029 -0.0001673643553767036 -0.021899743847377567 28.847864306289935 0.007087075687455625 0.01851976070445243 28.821388984197924 0.00027985726393475356 -0.02214290423653827 11.584431609112855 2.4777737560211537 15.042659398820476 -70.57719498807043 7.984563355376201 -19.577640143266766 -6.1866745020069445 -7.648747992415159 -63.51841401015849 -5.7673700545198 1.9499968453967247 -3.1541657679297503 -0.5122926469555307 0.08793697018188368 -8.077983594621928 -0.033936885559609206 0.031559008746039494 44.59649443827932 0.001188142463585468 -0.015427660836694428 44.57842059106653 12.509586577117092 -0.01961183150282092 0.02703989881064679 -0.02802415180412133 0.047316792094039876 0.00032288733389445023 0.02193453974166497 -0.03519646699675753 -0.03404674017587937 11.058110006972717 0.03412367492513637 0.033694903171979596 -0.047830792840329046 -0.006167125952772027 -0.0076671314556439 -0.010452271686410964 0.023725847326937024 0.04854880993104272 4.797381191127954 -0.04060230865546415 -0.03581334698440911 0.048631993056837394 -0.027009445617821527 0.019467880225208612 -0.04145058094901853 0.018193290178580755 0.011960109029872967 -5.58683406602643 0.001472608815708445 -0.04448538115483551 -6.721089458273044 -0.010998510930826596 0.028165529072851688 -6.723464346818333 0.006018540249524592 -0.03196030051489927 -0.013296366364943264 0.040177397871956885 0.0352029053401152 8.068373155791203 3.5226277418457217 -19.193606189096673 -0.025552489685271428 10.39103619639003 -0.025606160035433378 -5.591197970681245 -15.69202596002223 3.207665466956679 -0.019562080729642713 -0.0409507787493213 0.011287854921081445 0.03982325751977989 4.728308374826095 0.04175786282330736 12.498450460917526 -8.202204260012568 6.870126505038566 -0.013580510209053398 46.3680155226008 0.022929261266209863 -4.280291819264709 -14.734135713030092 -3.8040042705375985 0.009018943465623354 0.0425013913743372 0.00504319306397701 0.0015299843117549956 -10.782461200837366 0.02903128491040415 
-0.030417315116841332 -0.04026415689727913 0.006491077464378646 0.013275430661094587 -0.003851696643282651 -0.01840952207637572 5.0731865575805575 6.742539862628613 -1.8803266231189106 -1.0140792324799173 4.298240035887464 0.47132828401613025 -0.6953663319388981 -0.4492535416945621 1.1757690847815438 0.3342673966949276 0.11141035031082686 -0.28143250470396225 -0.21999200410454822 14.002478305927145 -2.1884972472061333 -0.4152847076649929 -1.8562559722714957 -6.150706080142218 0.46653807934242986 -19.62722846528353 -0.5469081503622745 -12.144511646386016 3.7128665551683313 -17.789537978074847 73.91108801181089 -3.3888734642490426 14.422760532058371 12.496175116770122 -6.203165964317676 72.11368383496553 3.9003126138831505 0.06259933520116578 -0.49014379270969344 4.555337130847821 -0.17457572832791202 -1.5892866495562554 0.028256228813524863 -0.031234699811571 -56.2128068927525 -0.01247368989718478 -0.006165337153565313 -56.22170765423221 -38.78024790083534 -0.037033327049240845 -0.015981690270078692 -0.0033580770308337783 0.03871863728666002 -0.015650362147092433 0.014737903442437448 0.014003609427780051 0.016110839590561223 -36.70411374119305 -0.015339470791412516 -0.007604948285278261 -0.0005358196511426754 -0.04640457731119915 0.04891694739028197 -0.00034743704289670125 -0.0335840470293444 -0.040484269098776435 -19.772437666931868 -0.005459817228822856 -0.005760430851108075 0.017797573792468515 0.008368654460526684 -0.0029536067340112837 0.04687905238111928 -0.02672160725816885 -0.016745186904927843 24.06109832463405 -0.015284699037621096 0.009126830212808993 28.886274545988517 0.01615687088957647 -0.0019888219532026123 28.90933345763838 -0.032736049546557455 -0.005937153133770439 11.195754792786982 2.447320956964061 15.166755735759155 -70.22054618110523 7.719497531697653 -18.502092521534234 -7.314107602920918 -9.017818822240203 -63.3898697782718 -6.565859545432882 1.456362575022552 -2.689884385975793 -0.4989741303421913 0.08760097530627946 -8.137316318063451 0.002346181126750263 0.04055896226404753 44.582325279101426 0.005604261549852056 0.0004863771907328749 44.52224651161955 12.50061037452344 0.03591164132194393 -0.02401324540519475 -0.02892339000863028 0.024161621192349197 0.008743794023947753 -0.009330707321478176 0.012426105999655185 -0.031573341614531264 11.114339910207912 -0.007436157050385465 -0.022074543829552196 -0.028340013825198275 -0.027470442237321743 0.03472014833750938 0.038006030533584666 -0.017638120072885725 -0.04951979533292286 4.773363188339575 -0.009951805382155336 -0.01159366668718331 0.03564681151417304 0.011593037090145086 0.029459659652000106 0.007369480287098437 0.019783605899971867 0.009339720951638632 -5.570484237301596 0.01114215035463191 -0.023063772775166663 -6.724042570718113 0.03932144261722012 0.016156969196751643 -6.753989099013431 -0.0022196503165982408 0.027434316983349638 0.019342301896364017 0.04907084953952755 -0.04725742422798586 8.02270109792517 3.4725676837916013 -19.215199274517808 0.006254922057270215 10.380089248374606 -0.017409917845221893 -5.655762527019286 -15.611972570631456 3.1927444226944326 -0.03670672333346778 0.020844310131385876 -0.006613479959556216 0.02663585033210629 4.694190892847494 -0.009478314801823203 12.454953307883054 -8.266850099902033 6.859360865486297 -0.0007179137894350953 46.407388992748906 0.00664104502966134 -4.340749162549968 -14.769518027799434 -3.8397681633034146 0.03505736746033532 -0.03772471848156857 0.040334685198900266 0.0142571801486903 -10.772597418463954 -0.0442370463966336 
